# xmcd
#
# Track frame offsets: 
#        150
#        18447
#        35607
#        55292
#
# Disc length: 1015 seconds
#
# Revision: 1
# Processed by: cddbd v1.5.2PL0 Copyright (c) Steve Scherf et al.
# Submitted via: ExactAudioCopyFreeDBPlugin 1.0
#
DISCID=2d03f504
DTITLE=Montell Jordan - Let's Ride [CDS)
DYEAR=1998
DGENRE=R&B
TTITLE0=Montell Jordan feat. Master P and Silkk The Shocker - Let's Ride
TTITLE0=(Radio Edit)
TTITLE1=Let's Ride (Radio Edit)
TTITLE2=Montell Jordan feat. Redman - Anything and Everything
TTITLE3=Let's Ride (Instrumental)
EXTD=
EXTT0=
EXTT1=
EXTT2=
EXTT3=
PLAYORDER=
